<svg width="40" height="40" viewBox="0 0 40 40" fill="none" xmlns="http://www.w3.org/2000/svg">
<rect x="1" y="1" width="38" height="38" rx="19" fill="#30D158" fill-opacity="0.1"/>
<path d="M9.83203 30.2753L14.6674 16.7552L23.4272 25.415L9.83203 30.2753ZM12.6978 27.4096L20.3505 24.6753L15.407 19.7068L12.6978 27.4096ZM22.0978 20.9411L21.182 20.0253L27.1043 14.103C27.6536 13.5537 28.3515 13.2749 29.1981 13.2666C30.0446 13.2583 30.7445 13.5287 31.2978 14.078L31.7228 14.503L30.8011 15.4188L30.3261 14.9438C30.0094 14.6271 29.6417 14.4646 29.2231 14.4563C28.8044 14.4479 28.4304 14.6104 28.1011 14.9438L22.0978 20.9411ZM17.9853 16.9346L17.0695 16.0128L17.7897 15.2867C18.177 14.9034 18.3581 14.4669 18.3331 13.9772C18.3081 13.4875 18.127 13.074 17.7897 12.7367L17.0897 12.0367L18.0114 11.121L18.6614 11.771C19.2607 12.3742 19.5561 13.1263 19.5478 14.0272C19.5395 14.9281 19.2357 15.6802 18.6364 16.2835L17.9853 16.9346ZM20.082 18.9253L19.1603 18.0096L22.9065 14.2634C23.2232 13.9467 23.3773 13.5425 23.369 13.0509C23.3607 12.5592 23.1982 12.155 22.8815 11.8384L21.3565 10.3134L22.2782 9.3916L23.8532 10.9666C24.3858 11.5199 24.6605 12.2146 24.6772 13.0509C24.6938 13.8871 24.4275 14.5798 23.8782 15.1291L20.082 18.9253ZM24.1696 23.0378L23.2478 22.1161L24.3989 20.971C25.0021 20.3677 25.7251 20.0577 26.5676 20.0411C27.4102 20.0244 28.1331 20.3177 28.7364 20.921L30.0114 22.196L29.0897 23.1177L27.7897 21.8177C27.4063 21.4344 27.0063 21.2427 26.5897 21.2427C26.173 21.2427 25.773 21.4344 25.3897 21.8177L24.1696 23.0378Z" fill="#30D158"/>
<rect x="1" y="1" width="38" height="38" rx="19" stroke="url(#paint0_linear_1025_3192)" stroke-width="2"/>
<defs>
<linearGradient id="paint0_linear_1025_3192" x1="20" y1="0" x2="20" y2="40" gradientUnits="userSpaceOnUse">
<stop stop-color="#30D158"/>
<stop offset="1" stop-color="#30D158" stop-opacity="0"/>
</linearGradient>
</defs>
</svg>
