<svg width="24" height="24" viewBox="0 0 24 24" fill="none" xmlns="http://www.w3.org/2000/svg">
<path d="M4.92245 21.293L2.89258 9.1137H21.1078L19.0779 21.293H4.92245ZM6.3518 19.5838H17.6545L19.0437 10.8169H4.96268L6.3518 19.5838ZM10.0002 14.8468H14.0002C14.2447 14.8468 14.4478 14.7619 14.6094 14.5919C14.771 14.422 14.8518 14.2211 14.8518 13.9892C14.8518 13.7447 14.771 13.5416 14.6094 13.38C14.4478 13.2184 14.2447 13.1376 14.0002 13.1376H10.0002C9.77228 13.1376 9.57336 13.2184 9.40343 13.38C9.23351 13.5416 9.14855 13.7447 9.14855 13.9892C9.14855 14.2211 9.23351 14.422 9.40343 14.5919C9.57336 14.7619 9.77228 14.8468 10.0002 14.8468ZM6.00018 7.6137C5.77228 7.6137 5.57336 7.52972 5.40343 7.36177C5.23351 7.19384 5.14855 6.99393 5.14855 6.76205C5.14855 6.51748 5.23351 6.31441 5.40343 6.15282C5.57336 5.99122 5.77228 5.91042 6.00018 5.91042H18.0002C18.2447 5.91042 18.4478 5.99122 18.6094 6.15282C18.771 6.31441 18.8518 6.51748 18.8518 6.76205C18.8518 6.99393 18.771 7.19384 18.6094 7.36177C18.4478 7.52972 18.2447 7.6137 18.0002 7.6137H6.00018ZM8.00018 4.41042C7.77228 4.41042 7.57336 4.32546 7.40343 4.15552C7.23351 3.98561 7.14855 3.7867 7.14855 3.5588C7.14855 3.31423 7.23351 3.11015 7.40343 2.94655C7.57336 2.78296 7.77228 2.70117 8.00018 2.70117H16.0002C16.2447 2.70117 16.4478 2.78296 16.6094 2.94655C16.771 3.11015 16.8518 3.31423 16.8518 3.5588C16.8518 3.7867 16.771 3.98561 16.6094 4.15552C16.4478 4.32546 16.2447 4.41042 16.0002 4.41042H8.00018Z" fill="#BF5AF2"/>
</svg>
