<svg width="24" height="24" viewBox="0 0 24 24" fill="none" xmlns="http://www.w3.org/2000/svg">
<path d="M4.95857 19.0716C4.24335 18.2358 3.69027 17.3051 3.29932 16.2795C2.90837 15.254 2.71289 14.1609 2.71289 13.0004C2.71289 10.4566 3.59687 8.28795 5.36482 6.49447C7.13275 4.70099 9.29462 3.78432 11.8504 3.74447C12.0131 3.74447 12.1799 3.74864 12.3509 3.75697C12.522 3.7653 12.6701 3.7778 12.7955 3.79447L10.7884 1.78739L11.8863 0.683594L16.0298 4.82707L11.8863 8.97652L10.7694 7.85969L13.0754 5.55369C12.8921 5.52036 12.6764 5.49536 12.4284 5.47869C12.1804 5.46203 11.9917 5.45369 11.8624 5.45369C9.77505 5.48558 8.01318 6.23349 6.57677 7.69744C5.14035 9.16139 4.42214 10.9291 4.42214 13.0004C4.42214 13.8385 4.56282 14.6915 4.84417 15.5594C5.1255 16.4274 5.57178 17.1919 6.18302 17.8532L4.95857 19.0716ZM11.0259 18.9358C11.0259 18.5738 10.897 18.2045 10.639 17.8279C10.381 17.4513 10.1012 17.0663 9.79959 16.673C9.49796 16.2797 9.21916 15.8646 8.96319 15.4276C8.70721 14.9907 8.57922 14.5309 8.57922 14.0483C8.57922 13.1037 8.91418 12.2975 9.58412 11.6295C10.254 10.9616 11.0593 10.6276 11.9999 10.6276C12.9444 10.6276 13.7507 10.9616 14.4186 11.6295C15.0865 12.2975 15.4205 13.1037 15.4205 14.0483C15.4205 14.5309 15.2925 14.9907 15.0365 15.4276C14.7806 15.8646 14.5018 16.2797 14.2001 16.673C13.8985 17.0663 13.6197 17.4513 13.3637 17.8279C13.1077 18.2045 12.9798 18.5738 12.9798 18.9358H11.0259ZM10.9759 21.2575V19.9657H13.0298V21.2575H10.9759ZM19.0412 19.0716L17.8477 17.8782C18.3596 17.2622 18.7769 16.5399 19.0996 15.7113C19.4222 14.8827 19.5836 13.9791 19.5836 13.0004C19.5836 11.9443 19.3703 10.9343 18.9439 9.97054C18.5174 9.00678 17.8698 8.14989 17.001 7.39989L18.2504 6.15642C19.1812 6.99772 19.92 8.00388 20.4667 9.17489C21.0135 10.3459 21.2868 11.6211 21.2868 13.0004C21.2868 14.1689 21.0914 15.2639 20.7004 16.2855C20.3095 17.3071 19.7564 18.2358 19.0412 19.0716Z" fill="#BF5AF2"/>
</svg>
