<svg width="24" height="24" viewBox="0 0 24 24" fill="none" xmlns="http://www.w3.org/2000/svg">
<path d="M3.25006 13.3517C2.88878 13.3517 2.57319 13.2167 2.30329 12.9468C2.03339 12.6769 1.89844 12.3613 1.89844 12.0001C1.89844 11.6388 2.03339 11.3232 2.30329 11.0533C2.57319 10.7834 2.88878 10.6484 3.25006 10.6484C3.61135 10.6484 3.92694 10.7834 4.19684 11.0533C4.46674 11.3232 4.60169 11.6388 4.60169 12.0001C4.60169 12.3613 4.46674 12.6769 4.19684 12.9468C3.92694 13.2167 3.61135 13.3517 3.25006 13.3517ZM5.07506 20.1185L3.85659 18.9001L8.32506 14.4316L9.54354 15.6501L5.07506 20.1185ZM8.32506 9.51854L3.88159 5.07506L5.10006 3.85659L9.54354 8.30006L8.32506 9.51854ZM12.0001 22.1017C11.6388 22.1017 11.3232 21.9667 11.0533 21.6968C10.7834 21.4269 10.6484 21.1113 10.6484 20.7501C10.6484 20.3888 10.7834 20.0732 11.0533 19.8033C11.3232 19.5334 11.6388 19.3984 12.0001 19.3984C12.3613 19.3984 12.6769 19.5334 12.9468 19.8033C13.2167 20.0732 13.3517 20.3888 13.3517 20.7501C13.3517 21.1113 13.2167 21.4269 12.9468 21.6968C12.6769 21.9667 12.3613 22.1017 12.0001 22.1017ZM12.0001 4.60169C11.6388 4.60169 11.3232 4.46674 11.0533 4.19684C10.7834 3.92694 10.6484 3.61135 10.6484 3.25006C10.6484 2.88878 10.7834 2.57319 11.0533 2.30329C11.3232 2.03339 11.6388 1.89844 12.0001 1.89844C12.3613 1.89844 12.6769 2.03339 12.9468 2.30329C13.2167 2.57319 13.3517 2.88878 13.3517 3.25006C13.3517 3.61135 13.2167 3.92694 12.9468 4.19684C12.6769 4.46674 12.3613 4.60169 12.0001 4.60169ZM15.6751 9.51854L14.4566 8.30006L18.9001 3.85659L20.1185 5.07506L15.6751 9.51854ZM18.9001 20.0935L14.4566 15.6501L15.6751 14.4316L20.1185 18.8751L18.9001 20.0935ZM20.7501 13.3517C20.3888 13.3517 20.0732 13.2167 19.8033 12.9468C19.5334 12.6769 19.3984 12.3613 19.3984 12.0001C19.3984 11.6388 19.5334 11.3232 19.8033 11.0533C20.0732 10.7834 20.3888 10.6484 20.7501 10.6484C21.1113 10.6484 21.4269 10.7834 21.6968 11.0533C21.9667 11.3232 22.1017 11.6388 22.1017 12.0001C22.1017 12.3613 21.9667 12.6769 21.6968 12.9468C21.4269 13.2167 21.1113 13.3517 20.7501 13.3517Z" fill="#BF5AF2"/>
</svg>
