<svg width="24" height="24" viewBox="0 0 24 24" fill="none" xmlns="http://www.w3.org/2000/svg">
<path d="M6.20471 17.1496C5.82848 17.1496 5.50857 17.0176 5.24498 16.7537C4.9814 16.4898 4.84961 16.1692 4.84961 15.792C4.84961 15.4287 4.98157 15.1127 5.24548 14.8437C5.5094 14.5748 5.82998 14.4403 6.20721 14.4403C6.57044 14.4403 6.88652 14.5751 7.15543 14.8445C7.42437 15.1139 7.55883 15.4306 7.55883 15.7945C7.55883 16.1707 7.42413 16.4906 7.15471 16.7542C6.88529 17.0178 6.56863 17.1496 6.20471 17.1496ZM6.20471 9.5599C5.82848 9.5599 5.50857 9.42794 5.24498 9.16402C4.9814 8.90011 4.84961 8.57953 4.84961 8.2023C4.84961 7.83907 4.98157 7.52298 5.24548 7.25405C5.5094 6.98513 5.82998 6.85067 6.20721 6.85067C6.57044 6.85067 6.88652 6.98538 7.15543 7.2548C7.42437 7.52422 7.55883 7.84088 7.55883 8.2048C7.55883 8.58103 7.42413 8.90094 7.15471 9.16452C6.88529 9.42811 6.56863 9.5599 6.20471 9.5599ZM9.93928 12.8517V11.1485H14.0588V12.8517H9.93928ZM17.3735 17.9708L15.9751 17.0382C16.4625 16.2922 16.8363 15.4983 17.0966 14.6566C17.3569 13.815 17.4871 12.9295 17.4871 12.0001C17.4871 10.8874 17.3018 9.83309 16.9311 8.83707C16.5605 7.84106 16.0335 6.94505 15.3501 6.14905L16.6616 5.06152C17.4446 6.00594 18.0618 7.06722 18.5132 8.24535C18.9646 9.42348 19.1904 10.6751 19.1904 12.0001C19.1904 13.1201 19.028 14.1807 18.7034 15.1819C18.3788 16.1832 17.9355 17.1128 17.3735 17.9708Z" fill="#BF5AF2"/>
</svg>
